<?xml version="1.0" encoding="UTF-8"?>
<svg id="Capa_2" xmlns="http://www.w3.org/2000/svg" viewBox="0 0 98.54 85.63">
  <defs>
    <style>
      .cls-1 {
        fill: #b34f93;
        stroke: #faecf5;
        stroke-miterlimit: 10;
        stroke-width: 1.48px;
      }
    </style>
  </defs>
  <g id="Capa_2-2" data-name="Capa_2">
    <g>
      <path class="cls-1" d="M55.18,8.05l-5.91,5.91-5.91-5.91c-9.75-9.75-25.56-9.75-35.31,0h0c-9.75,9.75-9.75,25.56,0,35.31l5.91,5.91,35.31,35.31,35.31-35.31,5.91-5.91c9.75-9.75,9.75-25.56,0-35.31h0c-9.75-9.75-25.56-9.75-35.31,0Z"/>
      <path class="cls-1" d="M40.84,26.27c0-4.65,8.43-12.31,8.43-12.31,0,0,8.43,7.66,8.43,12.31s-3.77,8.43-8.43,8.43-8.43-3.77-8.43-8.43Z"/>
    </g>
  </g>
</svg>