<?xml version="1.0" encoding="UTF-8"?>
<svg id="Capa_2" data-name="Capa 2" xmlns="http://www.w3.org/2000/svg" viewBox="0 0 37.02 39.59">
  <defs>
    <style>
      .cls-1 {
        fill: #b34f93;
      }
    </style>
  </defs>
  <g id="Capa_2-2" data-name="Capa 2">
    <g>
      <path class="cls-1" d="M18.51,1.29c-.45,17.63-.81,18.02-17.22,18.5,16.4.48,16.77.87,17.22,18.5.45-17.63.81-18.02,17.22-18.5-16.4-.48-16.77-.87-17.22-18.5Z"/>
      <path class="cls-1" d="M17.17,1.29c-.07,2.72-.12,5.45-.35,8.17-.14,1.69-.33,3.45-.96,5.04-.41,1.02-1.05,1.82-1.98,2.36-1.15.66-2.68.95-4.11,1.13-2.81.35-5.66.38-8.48.47-1.72.05-1.73,2.63,0,2.68,2.53.07,5.08.13,7.6.37,1.48.14,3.26.4,4.48.96,1.15.53,1.77,1.13,2.32,2.25.61,1.22.88,2.98,1.04,4.47.32,3.02.36,6.08.43,9.11.04,1.72,2.64,1.73,2.68,0,.07-2.72.12-5.45.35-8.17.14-1.69.33-3.45.96-5.04.41-1.02,1.05-1.82,1.98-2.36,1.15-.66,2.68-.95,4.11-1.13,2.81-.35,5.66-.38,8.48-.47,1.72-.05,1.73-2.63,0-2.68-2.53-.07-5.08-.13-7.6-.37-1.48-.14-3.26-.4-4.48-.96-1.15-.53-1.77-1.13-2.32-2.25-.61-1.22-.88-2.98-1.04-4.47-.32-3.02-.36-6.08-.43-9.11-.04-1.72-2.72-1.73-2.68,0,.07,2.92.12,5.85.4,8.76.19,1.96.45,3.95,1.25,5.76,1.42,3.22,4.56,4.33,7.83,4.77,3,.4,6.05.45,9.08.54v-2.68c-2.72.08-5.45.13-8.16.43-1.85.2-3.72.5-5.41,1.33-3.23,1.6-4.1,5.11-4.49,8.41s-.41,6.45-.5,9.67h2.68c-.07-2.92-.12-5.85-.4-8.76-.19-1.96-.45-3.95-1.25-5.76-1.42-3.22-4.56-4.33-7.83-4.77-3-.4-6.05-.45-9.08-.54v2.68c2.72-.08,5.45-.13,8.16-.43,1.85-.2,3.72-.5,5.41-1.33,3.23-1.6,4.1-5.11,4.49-8.41s.41-6.45.5-9.67c.04-1.72-2.64-1.72-2.68,0Z"/>
    </g>
  </g>
</svg>