<svg width="64" height="64" viewBox="0 0 64 64" fill="none" xmlns="http://www.w3.org/2000/svg">
<rect width="63" height="63" rx="18.9" transform="matrix(-1 -8.74228e-08 -8.74228e-08 1 63.1719 0.342285)" fill="#B34F93"/>
<g clip-path="url(#clip0_1287_135)">
<mask id="path-3-inside-1_1287_135" fill="white">
<path d="M38.2471 33.4177L29.4271 42.2377L31.6715 44.4427L44.2715 31.8427L31.6715 19.2427L29.4271 21.4477L38.2471 30.2677L19.0715 30.2677L19.0715 33.4177L38.2471 33.4177Z"/>
</mask>
<path d="M38.2471 33.4177L29.4271 42.2377L31.6715 44.4427L44.2715 31.8427L31.6715 19.2427L29.4271 21.4477L38.2471 30.2677L19.0715 30.2677L19.0715 33.4177L38.2471 33.4177Z" fill="#FAECF5"/>
<path d="M38.2471 33.4177L38.2471 28.6927L49.6543 28.6927L41.5882 36.7588L38.2471 33.4177ZM29.4271 42.2377L26.1157 45.6082L22.7152 42.2674L26.086 38.8966L29.4271 42.2377ZM31.6715 44.4427L35.0126 47.7838L31.7009 51.0954L28.3601 47.8132L31.6715 44.4427ZM44.2715 31.8427L47.6126 28.5016L50.9536 31.8427L47.6126 35.1838L44.2715 31.8427ZM31.6715 19.2427L28.3601 15.8722L31.7009 12.59L35.0126 15.9016L31.6715 19.2427ZM29.4271 21.4477L26.086 24.7888L22.7153 21.418L26.1157 18.0772L29.4271 21.4477ZM38.2471 30.2677L41.5882 26.9266L49.6543 34.9927L38.2471 34.9927L38.2471 30.2677ZM19.0715 30.2677L14.3465 30.2677L14.3465 25.5427L19.0715 25.5427L19.0715 30.2677ZM19.0715 33.4177L19.0715 38.1427L14.3465 38.1427L14.3465 33.4177L19.0715 33.4177ZM41.5882 36.7588L32.7682 45.5788L26.086 38.8966L34.906 30.0766L41.5882 36.7588ZM32.7385 38.8672L34.9829 41.0722L28.3601 47.8132L26.1157 45.6082L32.7385 38.8672ZM28.3304 41.1016L40.9304 28.5016L47.6126 35.1838L35.0126 47.7838L28.3304 41.1016ZM40.9304 35.1838L28.3304 22.5838L35.0126 15.9016L47.6126 28.5016L40.9304 35.1838ZM34.9829 22.6132L32.7385 24.8182L26.1157 18.0772L28.3601 15.8722L34.9829 22.6132ZM32.7682 18.1066L41.5882 26.9266L34.906 33.6088L26.086 24.7888L32.7682 18.1066ZM38.2471 34.9927L19.0715 34.9927L19.0715 25.5427L38.2471 25.5427L38.2471 34.9927ZM23.7965 30.2677L23.7965 33.4177L14.3465 33.4177L14.3465 30.2677L23.7965 30.2677ZM19.0715 28.6927L38.2471 28.6927L38.2471 38.1427L19.0715 38.1427L19.0715 28.6927Z" fill="#F7ECF5" mask="url(#path-3-inside-1_1287_135)"/>
</g>
<defs>
<clipPath id="clip0_1287_135">
<rect width="63" height="63" rx="31.5" transform="matrix(-1 -8.74228e-08 -8.74228e-08 1 63.1719 0.342285)" fill="white"/>
</clipPath>
</defs>
</svg>
