<svg width="64" height="64" viewBox="0 0 64 64" fill="none" xmlns="http://www.w3.org/2000/svg">
<rect x="0.828125" y="0.342285" width="63" height="63" rx="18.9" fill="#B34F93"/>
<g clip-path="url(#clip0_1287_118)">
<mask id="path-3-inside-1_1287_118" fill="white">
<path d="M25.7548 33.4177L34.5748 42.2377L32.3305 44.4427L19.7305 31.8427L32.3305 19.2427L34.5748 21.4477L25.7548 30.2677L44.9305 30.2677L44.9305 33.4177L25.7548 33.4177Z"/>
</mask>
<path d="M25.7548 33.4177L34.5748 42.2377L32.3305 44.4427L19.7305 31.8427L32.3305 19.2427L34.5748 21.4477L25.7548 30.2677L44.9305 30.2677L44.9305 33.4177L25.7548 33.4177Z" fill="#FAECF5"/>
<path d="M25.7548 33.4177L25.7548 28.6927L14.3477 28.6927L22.4138 36.7588L25.7548 33.4177ZM34.5748 42.2377L37.8862 45.6082L41.2867 42.2674L37.9159 38.8966L34.5748 42.2377ZM32.3305 44.4427L28.9894 47.7838L32.301 51.0954L35.6419 47.8132L32.3305 44.4427ZM19.7305 31.8427L16.3894 28.5016L13.0483 31.8427L16.3894 35.1838L19.7305 31.8427ZM32.3305 19.2427L35.6419 15.8722L32.301 12.59L28.9894 15.9016L32.3305 19.2427ZM34.5748 21.4477L37.9159 24.7888L41.2867 21.418L37.8862 18.0772L34.5748 21.4477ZM25.7548 30.2677L22.4138 26.9266L14.3477 34.9927L25.7548 34.9927L25.7548 30.2677ZM44.9305 30.2677L49.6555 30.2677L49.6555 25.5427L44.9305 25.5427L44.9305 30.2677ZM44.9305 33.4177L44.9305 38.1427L49.6555 38.1427L49.6555 33.4177L44.9305 33.4177ZM22.4138 36.7588L31.2338 45.5788L37.9159 38.8966L29.0959 30.0766L22.4138 36.7588ZM31.2635 38.8672L29.0191 41.0722L35.6419 47.8132L37.8862 45.6082L31.2635 38.8672ZM35.6715 41.1016L23.0715 28.5016L16.3894 35.1838L28.9894 47.7838L35.6715 41.1016ZM23.0715 35.1838L35.6715 22.5838L28.9894 15.9016L16.3894 28.5016L23.0715 35.1838ZM29.0191 22.6132L31.2635 24.8182L37.8862 18.0772L35.6419 15.8722L29.0191 22.6132ZM31.2338 18.1066L22.4138 26.9266L29.0959 33.6088L37.9159 24.7888L31.2338 18.1066ZM25.7548 34.9927L44.9305 34.9927L44.9305 25.5427L25.7548 25.5427L25.7548 34.9927ZM40.2055 30.2677L40.2055 33.4177L49.6555 33.4177L49.6555 30.2677L40.2055 30.2677ZM44.9305 28.6927L25.7548 28.6927L25.7548 38.1427L44.9305 38.1427L44.9305 28.6927Z" fill="#F7ECF5" mask="url(#path-3-inside-1_1287_118)"/>
</g>
<defs>
<clipPath id="clip0_1287_118">
<rect x="0.828125" y="0.342285" width="63" height="63" rx="31.5" fill="white"/>
</clipPath>
</defs>
</svg>
